#N canvas 474 220 692 561 16;
#X obj 236 288 key;
#X obj 319 290 keyup;
#X obj 235 384 change;
#X obj 236 321 sel 97;
#X msg 236 351 1;
#X obj 319 324 sel 97;
#X msg 320 357 0;
#X obj 235 429 sd-adsr~, f 36;
#X floatatom 475 289 5 0 0 0 - - - 0;
#X text 534 290 attack (ms);
#X floatatom 474 321 5 0 0 0 - - - 0;
#X floatatom 474 354 5 0 0 0 - - - 0;
#X floatatom 473 386 5 0 0 0 - - - 0;
#X text 533 322 decay (ms);
#X text 533 355 sustain (a);
#X text 532 387 release (ms);
#X obj 27 306 osc~;
#X obj 91 307 noise~;
#X text 219 140 sinusoid;
#X text 220 181 noise;
#X obj 198 143 tgl 15 0 empty empty empty 17 7 0 10 #fcfcfc #000000
#000000 0 1;
#X obj 199 187 tgl 15 0 empty empty empty 17 7 0 10 #fcfcfc #000000
#000000 0 1;
#X obj 83 181 expr 1-$f1;
#X obj 85 139 expr 1-$f1;
#X obj 158 263 line~;
#X msg 157 229 \$1 10;
#X obj 94 265 line~;
#X msg 93 231 \$1 10;
#X obj 28 349 *~;
#X obj 91 349 *~;
#X obj 29 462 *~;
#X obj 30 505 dac~;
#X floatatom 27 266 5 0 0 0 - - - 0;
#X text 29 239 FREQ;
#X msg 20 62 \; pd dsp \$1;
#X obj 20 31 tgl 15 0 empty empty empty 17 7 0 10 #fcfcfc #000000 #000000
0 1;
#X text 271 257 PRESS A;
#X text 476 28 PATCH 3.3 - ADSR;
#X connect 0 0 3 0;
#X connect 1 0 5 0;
#X connect 2 0 7 0;
#X connect 3 0 4 0;
#X connect 4 0 2 0;
#X connect 5 0 6 0;
#X connect 6 0 2 0;
#X connect 7 0 30 1;
#X connect 8 0 7 1;
#X connect 10 0 7 2;
#X connect 11 0 7 3;
#X connect 12 0 7 4;
#X connect 16 0 28 0;
#X connect 17 0 29 0;
#X connect 20 0 22 0;
#X connect 20 0 27 0;
#X connect 21 0 23 0;
#X connect 21 0 25 0;
#X connect 22 0 21 0;
#X connect 23 0 20 0;
#X connect 24 0 29 1;
#X connect 25 0 24 0;
#X connect 26 0 28 1;
#X connect 27 0 26 0;
#X connect 28 0 30 0;
#X connect 29 0 30 0;
#X connect 30 0 31 0;
#X connect 30 0 31 1;
#X connect 32 0 16 0;
#X connect 35 0 34 0;
