#N canvas 574 81 873 376 16;
#X text 127 97 ATTACK (ms);
#X text 311 97 DECAY (ms);
#X text 522 100 SUSTAIN (a);
#X text 731 99 RELEASE (ms);
#X obj 43 285 vline~;
#X msg 43 212 1 \$1 \, \$3 \$2 \$1;
#X obj 43 168 pack 0 0 0, f 42;
#X obj 43 131 i;
#X obj 641 139 i;
#X msg 641 171 0 \$1;
#X obj 70 95 inlet;
#X obj 251 95 inlet;
#X obj 460 100 inlet;
#X obj 667 106 inlet;
#X obj 43 6 inlet;
#X obj 43 37 sel 1 0;
#X text 106 6 1 - key press / 2 - key up;
#X obj 42 329 outlet~;
#X connect 4 0 17 0;
#X connect 5 0 4 0;
#X connect 6 0 5 0;
#X connect 7 0 6 0;
#X connect 8 0 9 0;
#X connect 9 0 4 0;
#X connect 10 0 7 1;
#X connect 11 0 6 1;
#X connect 12 0 6 2;
#X connect 13 0 8 1;
#X connect 14 0 15 0;
#X connect 15 0 7 0;
#X connect 15 1 8 0;
