#N canvas 888 145 222 367 16;
#X obj 9 14 inlet;
#X obj 9 135 phasor~;
#X obj 109 134 phasor~;
#X obj 109 97 * -1;
#X obj 9 163 *~ 2;
#X obj 9 192 -~ 1;
#X obj 9 221 clip~ 0 1;
#X obj 10 286 +~;
#X obj 110 168 *~ 2;
#X obj 110 197 -~ 1;
#X obj 110 226 clip~ 0 1;
#X obj 10 326 outlet~;
#X obj 9 47 t 0 i;
#X text 70 17 FREQ.;
#X connect 0 0 12 0;
#X connect 1 0 4 0;
#X connect 2 0 8 0;
#X connect 3 0 2 0;
#X connect 4 0 5 0;
#X connect 5 0 6 0;
#X connect 6 0 7 0;
#X connect 7 0 11 0;
#X connect 8 0 9 0;
#X connect 9 0 10 0;
#X connect 10 0 7 0;
#X connect 12 0 1 1;
#X connect 12 0 2 1;
#X connect 12 1 3 0;
#X connect 12 1 1 0;
